<?xml version="1.0" encoding="UTF-8"?>
<svg width="72px" height="72px" viewBox="0 0 72 72" version="1.1" xmlns="http://www.w3.org/2000/svg" xmlns:xlink="http://www.w3.org/1999/xlink">
    <!-- Generator: Sketch 63 (92445) - https://sketch.com -->
    <title>icon2/gears copy</title>
    <desc>Created with Sketch.</desc>
    <defs>
        <linearGradient x1="100%" y1="17.9983502%" x2="0%" y2="82.0016498%" id="linearGradient-1">
            <stop stop-color="#4CD964" offset="0%"></stop>
            <stop stop-color="#29BB9C" offset="100%"></stop>
        </linearGradient>
        <linearGradient x1="92.0127877%" y1="0%" x2="7.98721234%" y2="100%" id="linearGradient-2">
            <stop stop-color="#4CD964" offset="0%"></stop>
            <stop stop-color="#29BB9C" offset="100%"></stop>
        </linearGradient>
    </defs>
    <g id="icon2/gears-copy" stroke="none" stroke-width="1" fill="none" fill-rule="evenodd">
        <g id="001-manufacturing" transform="translate(2.000000, 0.000000)" fill-rule="nonzero">
            <path d="M62.4001465,29.9998169 C59.548645,29.9998169 57.090454,32.0059204 56.5202637,34.7997437 L41.8798828,34.7997437 C41.6090699,33.4802856 40.8982544,32.2915649 39.8638915,31.4280395 L43.9200439,24.0001831 L48.1201172,24.0001831 C48.7359008,27.0181274 51.5374145,29.0791626 54.6020508,28.7693481 C57.666687,28.4600829 59.9985352,25.8799438 59.9985352,22.7999267 C59.9985352,19.7199097 57.666687,17.1397704 54.6020508,16.8305054 C51.5374145,16.520691 48.7359008,18.5822754 48.1201172,21.6002197 L44.4001465,21.6002197 L44.4001465,16.1037598 C44.2018433,16.0202637 43.9931031,15.9587402 43.7920532,15.880188 C43.7393188,15.8439331 43.6832886,15.812622 43.6256103,15.7857055 C43.3564453,15.6835328 43.0795898,15.6082764 42.8071289,15.5170898 C42.6000367,15.4478759 42.3951415,15.3764648 42.1853027,15.3132934 C41.7315673,15.177063 41.2712402,15.0633546 40.8092652,14.9578858 C40.5955811,14.9089965 40.3846436,14.8535156 40.1687622,14.8112183 C39.6815186,14.7161866 39.1887817,14.6475219 38.6938477,14.5859985 C38.4960938,14.5612793 38.3016358,14.5250243 38.1016845,14.5057984 C37.4067993,14.4393311 36.706421,14.3997756 36,14.3997756 C31.0237426,14.3964844 26.2001953,16.1196899 22.3527832,19.2755126 C22.326416,19.296936 22.2973023,19.3150634 22.2709351,19.3370361 C21.8743286,19.6638794 21.5029907,20.0187378 21.1311035,20.3730469 C21.0020141,20.4955445 20.8613891,20.6065063 20.7355957,20.7322999 C20.4719238,20.996521 20.2324219,21.2838134 19.9819336,21.5612183 C19.7687988,21.7974243 19.5430298,22.0215454 19.3397828,22.2670898 C19.2008056,22.4351806 19.0810547,22.6197509 18.9470215,22.7922363 C18.6564331,23.1668702 18.3609008,23.5376587 18.0950317,23.9315186 C18.0703125,23.9672242 18.0510864,24.0073242 18.0263672,24.043579 C17.2743531,25.1658325 16.6294555,26.3567505 16.1004639,27.5998535 C16.0856324,27.6344605 16.0762939,27.6712647 16.0614624,27.7053223 C13.8460694,33.0133667 13.8460694,38.9866333 16.0614624,44.2941285 C16.0757446,44.3287353 16.0856324,44.3655395 16.1004639,44.3995972 C16.6294555,45.6432495 17.2743531,46.8336181 18.0258179,47.956421 C18.0499878,47.9921265 18.0697632,48.0322266 18.0944824,48.0684814 C18.3603516,48.4617921 18.6558837,48.8331298 18.9464722,49.2077637 C19.0805054,49.3802491 19.2002563,49.56427 19.3392335,49.7323609 C19.5424805,49.9784546 19.7682495,50.2025757 19.9813843,50.4387817 C20.2318726,50.7161866 20.4708251,51.003479 20.7350464,51.2677001 C20.8608398,51.3934937 21.0014648,51.5039063 21.1305542,51.6269531 C21.5024414,51.9812622 21.8743286,52.3355712 22.2703858,52.6629639 C22.296753,52.6849366 22.3258667,52.703064 22.3522339,52.7244874 C26.2001953,55.8803101 31.0237426,57.6035156 36,57.6002244 C36.706421,57.6002244 37.4067993,57.5606689 38.1016845,57.4942016 C38.3016358,57.4749757 38.4960938,57.4387207 38.6938477,57.4140015 C39.1887817,57.3524781 39.6815186,57.2838134 40.1687622,57.1887817 C40.3846436,57.1464844 40.5955811,57.0910035 40.8092652,57.0421142 C41.2712402,56.9366454 41.7315673,56.822937 42.1853027,56.6867066 C42.3945923,56.6235352 42.6000367,56.5521241 42.8071289,56.4829102 C43.0790406,56.3917236 43.3564453,56.3164672 43.6256103,56.2142945 C43.6832886,56.187378 43.7393188,56.1555176 43.7920532,56.119812 C43.9931031,56.0412598 44.2018433,55.9802856 44.4001465,55.895691 L44.4001465,50.3997756 L48.1201172,50.3997756 C48.7359008,53.4177246 51.5374145,55.479309 54.6020508,55.1694946 C57.666687,54.8602296 59.9985352,52.2800903 59.9985352,49.2000733 C59.9985352,46.1200562 57.666687,43.5399171 54.6020508,43.2306519 C51.5374145,42.9208374 48.7359008,44.9818726 48.1201172,47.9998169 L43.9200439,47.9998169 L39.8638915,40.5719605 C40.8982544,39.7084351 41.6090699,38.5197144 41.8798828,37.2002563 L56.5202637,37.2002563 C57.1514282,40.293457 60.0721436,42.3682251 63.2015992,41.9463501 C66.3305054,41.5239258 68.5964355,38.7487793 68.385498,35.5984497 C68.1740113,32.4481202 65.5576172,30.0009156 62.4001465,29.9998169 L62.4001465,29.9998169 Z M54,19.2002563 C55.9879761,19.2002563 57.6002197,20.8119507 57.6002197,22.7999267 C57.6002197,24.7884522 55.9879761,26.4001465 54,26.4001465 C52.0120239,26.4001465 50.3997803,24.7884522 50.3997803,22.7999267 C50.4058227,20.814148 52.0142212,19.2057495 54,19.2002563 Z M54,45.5998535 C55.9879761,45.5998535 57.6002197,47.2115478 57.6002197,49.2000733 C57.6002197,51.1880493 55.9879761,52.7997437 54,52.7997437 C52.0120239,52.7997437 50.3997803,51.1880493 50.3997803,49.2000733 C50.4058227,47.2142945 52.0142212,45.605896 54,45.5998535 L54,45.5998535 Z M27.0241699,25.0317993 C23.7117921,27.1906128 21.6815186,30.8474121 21.6002197,34.7997437 C21.6002197,35.4627686 21.0629883,36 20.3999633,36 C19.7374878,36 19.2002563,35.4627686 19.2002563,34.7997437 C19.2908936,30.0058594 21.7606202,25.5706788 25.7882079,22.9680176 C26.1567993,22.7471923 26.6149292,22.7400512 26.9906617,22.9487915 C27.3663941,23.1575317 27.6020508,23.5508423 27.6086426,23.980957 C27.6157837,24.4105225 27.3927613,24.8109742 27.0241699,25.0317993 Z M37.7281493,39.1558227 C37.2002563,39.4508056 36.6047973,39.6040649 36,39.6002903 C34.0120239,39.6002903 32.3997803,37.9879761 32.3997803,36 C32.3997803,34.0120239 34.0120239,32.3997097 36,32.3997097 C36.6047973,32.3959351 37.2002563,32.5491944 37.7281493,32.8441773 C38.8822632,33.4747925 39.6002197,34.6849366 39.6002197,36 C39.6002197,37.3150634 38.8822632,38.5252075 37.7281493,39.1558227 Z M62.4001465,39.6002197 C60.4116211,39.6002197 58.7999267,37.9879761 58.7999267,36 C58.7999267,34.0120239 60.4116211,32.3997803 62.4001465,32.3997803 C64.3881226,32.3997803 65.9998169,34.0120239 65.9998169,36 C65.9943238,37.9857788 64.3859253,39.5941773 62.4001465,39.6002197 Z" id="Shape" fill="url(#linearGradient-1)"></path>
            <path d="M60.0001831,57.6002197 C57.1486816,57.5996704 54.6904907,59.6063233 54.1197509,62.4001465 L54.1197509,62.4006958 L48.5007934,62.4034423 L46.9522704,60.8549195 C46.9445801,60.8466797 46.9401855,60.8362426 46.9319458,60.828003 L46.9198609,60.815918 L44.5319824,58.4401245 C35.5374757,61.8590699 25.3707275,59.5761109 18.701477,52.6404419 C12.0322266,45.7042236 10.1491699,35.4561767 13.9180298,26.6022949 C17.6863403,17.7489624 26.3776245,12.0014648 36,11.9998169 C38.9163208,11.9954223 41.809021,12.5282593 44.5319824,13.5719605 L46.9319458,11.171997 C46.9401855,11.1637574 46.9445801,11.1533203 46.9522704,11.1450805 L48.4920044,9.59985352 L54.1197509,9.59985352 C54.736084,12.6177978 57.5370484,14.6793824 60.6016845,14.3695679 C63.6663208,14.0603027 65.999135,11.4801636 65.999135,8.40014648 C65.999135,5.31958008 63.6663208,2.73999023 60.6016845,2.43017578 C57.5370484,2.12091061 54.736084,4.18194577 54.1197509,7.19989017 L48.4920044,7.19989017 C47.8586426,7.20153816 47.2521973,7.453125 46.8034058,7.8997192 L45.7849731,8.91815189 L45.7800293,8.91595462 C44.934082,8.60723873 44.0733032,8.34301758 43.1998902,8.1238403 L43.1998902,2.39996334 C43.1960449,1.07611087 42.1237793,0.00384522187 40.7999267,-3.99680289e-15 L31.2000733,-3.99680289e-15 C29.8762207,0.00384522187 28.8039551,1.07611087 28.8001098,2.39996334 L28.8001098,8.1238403 C26.1897583,8.78631595 23.687622,9.82122806 21.3722535,11.1961671 L17.3518066,7.1641845 C16.9019165,6.70550541 16.2872314,6.44622806 15.6445313,6.4440308 C15.0018311,6.44183353 14.385498,6.69671634 13.9317626,7.15209961 L7.1641845,13.920227 C6.70550541,14.3701172 6.44622806,14.9848023 6.4440308,15.6275024 C6.44183353,16.2702027 6.69671634,16.8865356 7.15209961,17.340271 L11.1961671,21.3722535 C9.82122806,23.687622 8.78631595,26.1897583 8.1238403,28.8001098 L2.39996334,28.8001098 C1.07611088,28.8039551 0.00384522188,29.8762207 2.39808173e-14,31.2000733 L2.39808173e-14,40.7999267 C0.00384522188,42.1237793 1.07611088,43.1960449 2.39996334,43.1998902 L8.1238403,43.1998902 C8.78631595,45.8102417 9.82122806,48.312378 11.1961671,50.6277465 L7.1641845,54.6481934 C6.70550541,55.0980835 6.44622806,55.7127686 6.4440308,56.3554687 C6.44183353,56.9981689 6.69671634,57.614502 7.15209961,58.0682374 L13.920227,64.8358155 C14.3701172,65.2944946 14.9848023,65.5537719 15.6275024,65.5559692 C16.2702027,65.5581665 16.8865356,65.3032837 17.340271,64.8479004 L21.3722535,60.8038329 C23.687622,62.1787719 26.1897583,63.213684 28.8001098,63.8761597 L28.8001098,69.6000367 C28.8039551,70.9238891 29.8762207,71.9961548 31.2000733,72 L40.7999267,72 C42.1237793,71.9961548 43.1960449,70.9238891 43.1998902,69.6000367 L43.1998902,63.8761597 C44.0733032,63.6569824 44.934082,63.3927613 45.7800293,63.0840454 L45.7855225,63.0818481 L46.8023071,64.0991821 C47.2510986,64.5463257 47.8586426,64.7984618 48.4920044,64.8001098 L54.1197509,64.8001098 C54.7514648,67.8933105 57.6721801,69.968628 60.8016358,69.5462036 C63.9305421,69.1237793 66.1964722,66.3486328 65.9855347,63.1983032 C65.7740478,60.0479736 63.1571046,57.6007691 60.0001831,57.6002197 L60.0001831,57.6002197 Z M60.0001831,4.79992669 C61.9881593,4.79992669 63.5998535,6.41162109 63.5998535,8.40014648 C63.5998535,10.3881226 61.9881593,11.9998169 60.0001831,11.9998169 C58.0116577,11.9998169 56.3999633,10.3881226 56.3999633,8.40014648 C56.4060059,6.41436764 58.0144043,4.8059692 60.0001831,4.79992669 L60.0001831,4.79992669 Z M60.0001831,67.2000733 C58.0116578,67.2000733 56.3999633,65.5883789 56.3999633,63.5998535 C56.3999633,61.6118774 58.0116578,60.0001831 60.0001831,60.0001831 C61.9881593,60.0001831 63.5998535,61.6118774 63.5998535,63.5998535 C63.5943603,65.5856324 61.9859618,67.1940308 60.0001831,67.2000733 L60.0001831,67.2000733 Z" id="Shape" fill="url(#linearGradient-2)"></path>
        </g>
    </g>
</svg>