<?xml version="1.0" encoding="UTF-8"?>
<svg width="72px" height="72px" viewBox="0 0 72 72" version="1.1" xmlns="http://www.w3.org/2000/svg" xmlns:xlink="http://www.w3.org/1999/xlink">
    <!-- Generator: Sketch 63 (92445) - https://sketch.com -->
    <title>icon2/gears copy 2</title>
    <desc>Created with Sketch.</desc>
    <defs>
        <linearGradient x1="96.6645377%" y1="0%" x2="3.33546234%" y2="100%" id="linearGradient-1">
            <stop stop-color="#4CD964" offset="0%"></stop>
            <stop stop-color="#29BB9C" offset="100%"></stop>
        </linearGradient>
        <linearGradient x1="77.5758627%" y1="0%" x2="22.4241373%" y2="100%" id="linearGradient-2">
            <stop stop-color="#4CD964" offset="0%"></stop>
            <stop stop-color="#29BB9C" offset="100%"></stop>
        </linearGradient>
        <linearGradient x1="99.9978193%" y1="0%" x2="0.00218067353%" y2="100%" id="linearGradient-3">
            <stop stop-color="#4CD964" offset="0%"></stop>
            <stop stop-color="#29BB9C" offset="100%"></stop>
        </linearGradient>
    </defs>
    <g id="icon2/gears-copy-2" stroke="none" stroke-width="1" fill="none" fill-rule="evenodd">
        <g id="004-oil" fill-rule="nonzero">
            <path d="M36,57.8571429 C40.1049981,57.8501528 44.0379703,56.2075584 46.9285714,53.2928571 L24.1971429,30.5742857 C21.8571429,35.1514286 20.5714286,39.1371429 20.5714286,42.4285714 C20.5714286,50.9495361 27.4790353,57.8571429 36,57.8571429 Z M24.4285714,41.1428571 C25.1386518,41.1428571 25.7142857,41.7184911 25.7142857,42.4285714 C25.7142857,48.1092146 30.3193569,52.7142857 36,52.7142857 C36.7100803,52.7142857 37.2857143,53.2899197 37.2857143,54 C37.2857143,54.7100803 36.7100803,55.2857143 36,55.2857143 C28.8991961,55.2857143 23.1428571,49.5293754 23.1428571,42.4285714 C23.1428571,41.7184911 23.7184911,41.1428571 24.4285714,41.1428571 Z" id="Shape" fill="url(#linearGradient-1)"></path>
            <path d="M51.4285774,42.4285714 C51.4285774,33.6857143 42.4285714,21.3814286 36.9514286,15.1971429 C36.707532,14.9247509 36.3591981,14.7690829 35.9935714,14.7690829 C35.6279448,14.7690829 35.2796108,14.9247509 35.0357143,15.1971429 C32.9236475,17.5959829 30.936722,20.1021697 29.0828571,22.7057143 L51.2357143,44.8585714 C51.3647988,44.0550225 51.4292909,43.2424223 51.4285774,42.4285714 Z" id="Shape" fill="url(#linearGradient-2)"></path>
            <path d="M36,72.0000407 C44.8775146,72.0133727 53.4444058,68.7332154 60.0428571,62.7942857 C61.0126484,61.9401959 61.9273387,61.0255056 62.7814286,60.0557143 C75.5574814,45.8233645 74.9745957,24.085219 61.4541984,10.5579811 C47.9338011,-2.96925677 26.1959531,-3.56313795 11.9571429,9.20571429 C10.9873515,10.0598042 10.0726613,10.9744944 9.21857143,11.9442857 C-0.276715054,22.5160403 -2.66489334,37.6841375 3.12254717,50.6621186 C8.90998768,63.6400997 21.7900576,72.0000407 36,72.0000407 L36,72.0000407 Z M15.7757143,11.0314286 C28.5631462,0.742026754 47.0487261,1.73963002 58.654548,13.345452 C70.2603699,24.9512739 71.2579733,43.4368538 60.9685714,56.2242857 C60.7378973,56.5094817 60.3963927,56.682573 60.03,56.7000215 C59.6882533,56.7019759 59.3597813,56.5678112 59.1171429,56.3271429 L15.6728571,12.9471429 C15.4157253,12.6889773 15.2802098,12.3338332 15.3,11.97 C15.317427,11.6036073 15.4905183,11.2621027 15.7757143,11.0314286 Z M11.0314286,15.7757143 C11.2621027,15.4905183 11.6036073,15.317427 11.97,15.3 C12.3338332,15.2802098 12.6889773,15.4157253 12.9471429,15.6728571 L56.3271429,59.0528571 C56.5842747,59.3110227 56.7197902,59.6661669 56.7,60.03 C56.682573,60.3963927 56.5094817,60.7378973 56.2242857,60.9685714 C43.4368538,71.2579733 24.9512739,70.2603699 13.345452,58.654548 C1.73963002,47.0487261 0.742026754,28.5631462 11.0314286,15.7757143 Z" id="Shape" fill="url(#linearGradient-3)"></path>
        </g>
    </g>
</svg>