<?xml version="1.0" encoding="UTF-8"?>
<svg width="153px" height="153px" viewBox="0 0 153 153" version="1.1" xmlns="http://www.w3.org/2000/svg" xmlns:xlink="http://www.w3.org/1999/xlink">
    <!-- Generator: Sketch 63 (92445) - https://sketch.com -->
    <title>Group 4</title>
    <desc>Created with Sketch.</desc>
    <defs>
        <linearGradient x1="100%" y1="0%" x2="0%" y2="100%" id="linearGradient-1">
            <stop stop-color="#4CD964" offset="0%"></stop>
            <stop stop-color="#29BB9C" offset="100%"></stop>
        </linearGradient>
        <path d="M41.0221632,-1.65734449e-15 L69.9778368,1.65734449e-15 C84.2421366,-9.62964878e-16 89.4147164,1.48520978 94.6295313,4.27412326 C99.8443461,7.06303674 103.936963,11.1556539 106.725877,16.3704687 C109.51479,21.5852836 111,26.7578634 111,41.0221632 L111,69.9778368 C111,84.2421366 109.51479,89.4147164 106.725877,94.6295313 C103.936963,99.8443461 99.8443461,103.936963 94.6295313,106.725877 C89.4147164,109.51479 84.2421366,111 69.9778368,111 L41.0221632,111 C26.7578634,111 21.5852836,109.51479 16.3704687,106.725877 C11.1556539,103.936963 7.06303674,99.8443461 4.27412326,94.6295313 C1.48520978,89.4147164 6.41976585e-16,84.2421366 -1.10489633e-15,69.9778368 L1.10489633e-15,41.0221632 C-6.41976585e-16,26.7578634 1.48520978,21.5852836 4.27412326,16.3704687 C7.06303674,11.1556539 11.1556539,7.06303674 16.3704687,4.27412326 C21.5852836,1.48520978 26.7578634,9.62964878e-16 41.0221632,-1.65734449e-15 Z" id="path-2"></path>
        <filter x="-32.0%" y="-24.8%" width="164.0%" height="164.0%" filterUnits="objectBoundingBox" id="filter-3">
            <feMorphology radius="1.5" operator="dilate" in="SourceAlpha" result="shadowSpreadOuter1"></feMorphology>
            <feOffset dx="0" dy="8" in="shadowSpreadOuter1" result="shadowOffsetOuter1"></feOffset>
            <feGaussianBlur stdDeviation="10" in="shadowOffsetOuter1" result="shadowBlurOuter1"></feGaussianBlur>
            <feComposite in="shadowBlurOuter1" in2="SourceAlpha" operator="out" result="shadowBlurOuter1"></feComposite>
            <feColorMatrix values="0 0 0 0 0   0 0 0 0 0   0 0 0 0 0  0 0 0 0.18 0" type="matrix" in="shadowBlurOuter1"></feColorMatrix>
        </filter>
        <linearGradient x1="99.6253921%" y1="0%" x2="0.374607871%" y2="100%" id="linearGradient-4">
            <stop stop-color="#4CD964" offset="0%"></stop>
            <stop stop-color="#29BB9C" offset="100%"></stop>
        </linearGradient>
    </defs>
    <g id="Page-1" stroke="none" stroke-width="1" fill="none" fill-rule="evenodd">
        <g id="vinfast-klara-S" transform="translate(-682.000000, -3791.000000)">
            <g id="f4" transform="translate(0.000000, 3072.000000)">
                <g id="appFeature--right" transform="translate(467.000000, 732.000000)">
                    <g id="Group">
                        <g id="Group-4" transform="translate(236.000000, 0.000000)">
                            <g id="Rectangle">
                                <use fill="black" fill-opacity="1" filter="url(#filter-3)" xlink:href="#path-2"></use>
                                <use stroke="url(#linearGradient-1)" stroke-width="3" fill="#000000" fill-rule="evenodd" xlink:href="#path-2"></use>
                            </g>
                            <g id="icon/app-1" transform="translate(21.000000, 21.000000)" fill="url(#linearGradient-4)" fill-rule="nonzero">
                                <path d="M58.17,46.27 C54.6,44.45 51.73,43.82 49.49,43.26 C46.62,42.56 44.87,42.21 43.26,39.9 C41.51,37.45 43.12,34.93 45.99,31.15 C46.97,29.89 47.95,28.56 48.72,27.23 C49.98,24.99 50.33,23.17 49.77,21.7 C49.49,20.86 48.93,20.23 48.09,19.67 C49,14.42 48.37,10.36 46.13,7.63 C43.89,4.9 40.11,3.5 35,3.5 C29.89,3.5 26.18,4.9 24.08,7.63 C21.91,10.36 21.42,14.42 22.47,19.74 C21.7,20.23 21.14,20.93 20.86,21.7 C20.3,23.17 20.65,24.99 21.91,27.23 C22.68,28.56 23.66,29.89 24.57,31.15 C27.44,34.93 29.05,37.45 27.3,39.97 C25.76,42.21 23.87,42.63 20.79,43.33 C18.34,43.82 15.4,44.52 11.76,46.34 C5.81,49.28 3.08,55.65 3.64,65.24 C3.64,65.94 4.2,66.5 4.97,66.5 L35.28,66.5 L64.89,66.5 C65.66,66.5 66.22,65.94 66.29,65.17 C66.71,55.58 63.98,49.21 58.17,46.27 Z M35.28,63.7 L6.3,63.7 C6.16,56.07 8.4,51.03 12.95,48.79 C16.24,47.11 18.97,46.55 21.35,45.99 C24.57,45.29 27.37,44.66 29.61,41.51 C32.69,37.17 29.61,33.04 26.88,29.47 C25.97,28.28 25.06,27.02 24.36,25.83 C23.31,23.87 23.38,22.96 23.52,22.61 C23.59,22.47 23.73,22.05 24.64,21.7 C25.34,21.42 25.69,20.72 25.48,20.09 C24.29,15.19 24.57,11.55 26.32,9.31 C27.86,7.35 30.8,6.3 35,6.3 C39.27,6.3 42.28,7.35 43.89,9.38 C45.71,11.62 46.13,15.26 45.08,20.16 C44.94,20.86 45.29,21.49 45.99,21.77 C46.9,22.12 47.04,22.54 47.11,22.68 C47.25,23.03 47.32,23.94 46.27,25.9 C45.64,27.09 44.66,28.35 43.75,29.54 C41.02,33.18 37.94,37.31 41.02,41.58 C43.19,44.73 45.85,45.36 48.86,46.06 C51.1,46.55 53.62,47.18 56.91,48.79 C61.39,51.03 63.63,56.07 63.56,63.7 L35.28,63.7 L35.28,63.7 Z" id="Shape"></path>
                            </g>
                        </g>
                    </g>
                </g>
            </g>
        </g>
    </g>
</svg>