<?xml version="1.0" encoding="UTF-8"?>
<svg width="153px" height="153px" viewBox="0 0 153 153" version="1.1" xmlns="http://www.w3.org/2000/svg" xmlns:xlink="http://www.w3.org/1999/xlink">
    <!-- Generator: Sketch 63 (92445) - https://sketch.com -->
    <title>Group 4</title>
    <desc>Created with Sketch.</desc>
    <defs>
        <linearGradient x1="100%" y1="0%" x2="0%" y2="100%" id="linearGradient-1">
            <stop stop-color="#4CD964" offset="0%"></stop>
            <stop stop-color="#29BB9C" offset="100%"></stop>
        </linearGradient>
        <path d="M41.0221632,-1.65734449e-15 L69.9778368,1.65734449e-15 C84.2421366,-9.62964878e-16 89.4147164,1.48520978 94.6295313,4.27412326 C99.8443461,7.06303674 103.936963,11.1556539 106.725877,16.3704687 C109.51479,21.5852836 111,26.7578634 111,41.0221632 L111,69.9778368 C111,84.2421366 109.51479,89.4147164 106.725877,94.6295313 C103.936963,99.8443461 99.8443461,103.936963 94.6295313,106.725877 C89.4147164,109.51479 84.2421366,111 69.9778368,111 L41.0221632,111 C26.7578634,111 21.5852836,109.51479 16.3704687,106.725877 C11.1556539,103.936963 7.06303674,99.8443461 4.27412326,94.6295313 C1.48520978,89.4147164 6.41976585e-16,84.2421366 -1.10489633e-15,69.9778368 L1.10489633e-15,41.0221632 C-6.41976585e-16,26.7578634 1.48520978,21.5852836 4.27412326,16.3704687 C7.06303674,11.1556539 11.1556539,7.06303674 16.3704687,4.27412326 C21.5852836,1.48520978 26.7578634,9.62964878e-16 41.0221632,-1.65734449e-15 Z" id="path-2"></path>
        <filter x="-32.0%" y="-24.8%" width="164.0%" height="164.0%" filterUnits="objectBoundingBox" id="filter-3">
            <feMorphology radius="1.5" operator="dilate" in="SourceAlpha" result="shadowSpreadOuter1"></feMorphology>
            <feOffset dx="0" dy="8" in="shadowSpreadOuter1" result="shadowOffsetOuter1"></feOffset>
            <feGaussianBlur stdDeviation="10" in="shadowOffsetOuter1" result="shadowBlurOuter1"></feGaussianBlur>
            <feComposite in="shadowBlurOuter1" in2="SourceAlpha" operator="out" result="shadowBlurOuter1"></feComposite>
            <feColorMatrix values="0 0 0 0 0   0 0 0 0 0   0 0 0 0 0  0 0 0 0.18 0" type="matrix" in="shadowBlurOuter1"></feColorMatrix>
        </filter>
        <linearGradient x1="100%" y1="7.63817149%" x2="0%" y2="92.3618285%" id="linearGradient-4">
            <stop stop-color="#4CD964" offset="0%"></stop>
            <stop stop-color="#29BB9C" offset="100%"></stop>
        </linearGradient>
    </defs>
    <g id="Page-1" stroke="none" stroke-width="1" fill="none" fill-rule="evenodd">
        <g id="vinfast-klara-S" transform="translate(-682.000000, -3791.000000)">
            <g id="f4" transform="translate(0.000000, 3072.000000)">
                <g id="appFeature--right" transform="translate(467.000000, 732.000000)">
                    <g id="Group">
                        <g id="Group-4" transform="translate(236.000000, 0.000000)">
                            <g id="Rectangle">
                                <use fill="black" fill-opacity="1" filter="url(#filter-3)" xlink:href="#path-2"></use>
                                <use stroke="url(#linearGradient-1)" stroke-width="3" fill="#000000" fill-rule="evenodd" xlink:href="#path-2"></use>
                            </g>
                            <g id="icon/app-6" transform="translate(21.000000, 21.000000)" fill="url(#linearGradient-4)" fill-rule="nonzero">
                                <path d="M23.1,10.5 C23.1,9.73 23.73,9.1 24.5,9.1 L43.4,9.1 C44.17,9.1 44.8,9.73 44.8,10.5 C44.8,11.27 44.17,11.9 43.4,11.9 L24.5,11.9 C23.73,11.9 23.1,11.27 23.1,10.5 Z M49.7,14.7 C50.47,14.7 51.1,14.07 51.1,13.3 L51.1,7.7 C51.1,6.93 50.47,6.3 49.7,6.3 C48.93,6.3 48.3,6.93 48.3,7.7 L48.3,13.3 C48.3,14.07 48.93,14.7 49.7,14.7 Z M18.9,14.7 C19.67,14.7 20.3,14.07 20.3,13.3 L20.3,7.7 C20.3,6.93 19.67,6.3 18.9,6.3 C18.13,6.3 17.5,6.93 17.5,7.7 L17.5,13.3 C17.5,14.07 18.13,14.7 18.9,14.7 Z M39.2,39.2 C39.2,39.97 38.57,40.6 37.8,40.6 L25.2,40.6 C25.27,46.55 25.69,52.57 25.83,54.53 C28.56,54.6 31.43,54.6 34.3,54.6 C35.07,54.6 35.7,55.23 35.7,56 C35.7,56.77 35.07,57.4 34.3,57.4 C20.44,57.4 6.37,56.7 6.23,56.7 C5.53,56.63 4.97,56.07 4.9,55.37 C4.9,55.3 4.2,44.03 4.2,32.9 C4.2,21.77 4.9,10.5 4.9,10.43 C4.97,9.66 5.53,9.1 6.3,9.1 L14,9.1 C14.77,9.1 15.4,9.73 15.4,10.5 C15.4,11.27 14.77,11.9 14,11.9 L7.63,11.9 C7.56,13.65 7.35,16.94 7.21,20.93 C10.57,20.79 21.77,20.3 34.3,20.3 C46.83,20.3 58.03,20.79 61.39,20.93 C61.25,16.94 61.11,13.58 60.97,11.9 L55.3,11.9 C54.53,11.9 53.9,11.27 53.9,10.5 C53.9,9.73 54.53,9.1 55.3,9.1 L62.3,9.1 C63.07,9.1 63.63,9.66 63.7,10.43 C63.7,10.57 64.4,21.77 64.4,32.9 C64.4,33.67 63.77,34.3 63,34.3 C62.23,34.3 61.6,33.67 61.6,32.9 C61.6,29.75 61.53,26.67 61.46,23.73 C59.43,23.66 53.34,23.38 45.57,23.17 C45.64,24.5 45.85,27.02 45.99,30.03 C45.99,30.66 46.06,31.22 46.06,31.85 C46.06,32.41 46.06,33.04 46.13,33.67 C46.2,34.44 45.57,35.07 44.8,35.14 L44.73,35.14 C43.96,35.14 43.4,34.58 43.33,33.81 C43.26,33.18 43.26,32.55 43.26,31.92 C43.26,31.29 43.26,30.73 43.19,30.17 C43.05,26.95 42.84,24.29 42.77,23.1 C40.04,23.1 37.24,23.1 34.3,23.1 C31.36,23.1 28.56,23.1 25.83,23.17 C25.69,25.2 25.27,31.57 25.2,37.8 L37.8,37.8 C38.57,37.8 39.2,38.43 39.2,39.2 Z M7.14,23.73 C7.07,26.67 7,29.75 7,32.9 C7,34.51 7,36.19 7.07,37.8 L22.4,37.8 C22.47,31.78 22.89,25.55 23.03,23.24 C15.26,23.38 9.17,23.66 7.14,23.73 Z M22.4,40.6 L7.07,40.6 C7.21,46.55 7.49,51.66 7.63,53.97 C10.08,54.11 16.03,54.32 23.03,54.46 C22.89,52.22 22.47,46.41 22.4,40.6 Z M65.8,51.1 C65.8,57.68 60.48,63 53.9,63 C47.32,63 42,57.68 42,51.1 C42,44.52 47.32,39.2 53.9,39.2 C60.48,39.2 65.8,44.52 65.8,51.1 Z M63,51.1 C63,46.06 58.94,42 53.9,42 C48.86,42 44.8,46.06 44.8,51.1 C44.8,56.14 48.86,60.2 53.9,60.2 C58.94,60.2 63,56.14 63,51.1 Z M57.82,54.11 L55.3,52.29 L55.3,46.9 C55.3,46.13 54.67,45.5 53.9,45.5 C53.13,45.5 52.5,46.13 52.5,46.9 L52.5,52.99 C52.5,53.41 52.71,53.83 53.06,54.11 L56.14,56.35 C56.42,56.56 56.7,56.63 56.98,56.63 C57.4,56.63 57.82,56.42 58.1,56.07 C58.59,55.44 58.45,54.53 57.82,54.11 Z" id="Shape"></path>
                            </g>
                        </g>
                    </g>
                </g>
            </g>
        </g>
    </g>
</svg>