<?xml version="1.0" encoding="UTF-8"?>
<svg width="153px" height="153px" viewBox="0 0 153 153" version="1.1" xmlns="http://www.w3.org/2000/svg" xmlns:xlink="http://www.w3.org/1999/xlink">
    <!-- Generator: Sketch 63 (92445) - https://sketch.com -->
    <title>Group 4</title>
    <desc>Created with Sketch.</desc>
    <defs>
        <linearGradient x1="100%" y1="0%" x2="0%" y2="100%" id="linearGradient-1">
            <stop stop-color="#4CD964" offset="0%"></stop>
            <stop stop-color="#29BB9C" offset="100%"></stop>
        </linearGradient>
        <path d="M41.0221632,-1.65734449e-15 L69.9778368,1.65734449e-15 C84.2421366,-9.62964878e-16 89.4147164,1.48520978 94.6295313,4.27412326 C99.8443461,7.06303674 103.936963,11.1556539 106.725877,16.3704687 C109.51479,21.5852836 111,26.7578634 111,41.0221632 L111,69.9778368 C111,84.2421366 109.51479,89.4147164 106.725877,94.6295313 C103.936963,99.8443461 99.8443461,103.936963 94.6295313,106.725877 C89.4147164,109.51479 84.2421366,111 69.9778368,111 L41.0221632,111 C26.7578634,111 21.5852836,109.51479 16.3704687,106.725877 C11.1556539,103.936963 7.06303674,99.8443461 4.27412326,94.6295313 C1.48520978,89.4147164 6.41976585e-16,84.2421366 -1.10489633e-15,69.9778368 L1.10489633e-15,41.0221632 C-6.41976585e-16,26.7578634 1.48520978,21.5852836 4.27412326,16.3704687 C7.06303674,11.1556539 11.1556539,7.06303674 16.3704687,4.27412326 C21.5852836,1.48520978 26.7578634,9.62964878e-16 41.0221632,-1.65734449e-15 Z" id="path-2"></path>
        <filter x="-32.0%" y="-24.8%" width="164.0%" height="164.0%" filterUnits="objectBoundingBox" id="filter-3">
            <feMorphology radius="1.5" operator="dilate" in="SourceAlpha" result="shadowSpreadOuter1"></feMorphology>
            <feOffset dx="0" dy="8" in="shadowSpreadOuter1" result="shadowOffsetOuter1"></feOffset>
            <feGaussianBlur stdDeviation="10" in="shadowOffsetOuter1" result="shadowBlurOuter1"></feGaussianBlur>
            <feComposite in="shadowBlurOuter1" in2="SourceAlpha" operator="out" result="shadowBlurOuter1"></feComposite>
            <feColorMatrix values="0 0 0 0 0   0 0 0 0 0   0 0 0 0 0  0 0 0 0.18 0" type="matrix" in="shadowBlurOuter1"></feColorMatrix>
        </filter>
        <linearGradient x1="100%" y1="12.6505102%" x2="0%" y2="87.3494898%" id="linearGradient-4">
            <stop stop-color="#4CD964" offset="0%"></stop>
            <stop stop-color="#29BB9C" offset="100%"></stop>
        </linearGradient>
    </defs>
    <g id="Page-1" stroke="none" stroke-width="1" fill="none" fill-rule="evenodd">
        <g id="vinfast-klara-S" transform="translate(-682.000000, -3791.000000)">
            <g id="f4" transform="translate(0.000000, 3072.000000)">
                <g id="appFeature--right" transform="translate(467.000000, 732.000000)">
                    <g id="Group">
                        <g id="Group-4" transform="translate(236.000000, 0.000000)">
                            <g id="Rectangle">
                                <use fill="black" fill-opacity="1" filter="url(#filter-3)" xlink:href="#path-2"></use>
                                <use stroke="url(#linearGradient-1)" stroke-width="3" fill="#000000" fill-rule="evenodd" xlink:href="#path-2"></use>
                            </g>
                            <g id="icon/app-5" transform="translate(21.000000, 21.000000)" fill="url(#linearGradient-4)" fill-rule="nonzero">
                                <path d="M43.4,38.5 C43.4,41.44 41.79,44.24 39.27,45.71 C39.06,45.85 38.78,45.92 38.57,45.92 C38.08,45.92 37.59,45.64 37.38,45.22 C36.96,44.52 37.24,43.68 37.87,43.33 C39.55,42.35 40.6,40.53 40.6,38.5 C40.6,35.42 38.08,32.9 35,32.9 C31.92,32.9 29.4,35.42 29.4,38.5 C29.4,40.46 30.45,42.35 32.13,43.33 C32.83,43.75 33.04,44.59 32.62,45.22 C32.2,45.92 31.36,46.13 30.73,45.71 C28.21,44.24 26.6,41.44 26.6,38.5 C26.6,33.88 30.38,30.1 35,30.1 C39.62,30.1 43.4,33.88 43.4,38.5 Z M35,23.1 C26.53,23.1 19.6,30.03 19.6,38.5 C19.6,43.61 22.12,48.37 26.32,51.24 C26.53,51.38 26.81,51.45 27.09,51.45 C27.51,51.45 28,51.24 28.28,50.82 C28.7,50.19 28.56,49.28 27.93,48.86 C24.43,46.55 22.4,42.7 22.4,38.5 C22.4,31.57 28.07,25.9 35,25.9 C41.93,25.9 47.6,31.57 47.6,38.5 C47.6,42.63 45.5,46.55 42.07,48.86 C41.44,49.28 41.23,50.19 41.72,50.82 C42.14,51.45 43.05,51.66 43.68,51.17 C47.88,48.3 50.4,43.61 50.4,38.5 C50.4,30.03 43.47,23.1 35,23.1 Z M35,16.1 C22.68,16.1 12.6,26.18 12.6,38.5 C12.6,45.22 15.61,51.52 20.79,55.79 C21.42,56.28 22.26,56.21 22.75,55.58 C23.24,54.95 23.17,54.11 22.54,53.62 C17.99,49.91 15.4,44.38 15.4,38.5 C15.4,27.72 24.22,18.9 35,18.9 C45.78,18.9 54.6,27.72 54.6,38.5 C54.6,44.45 51.94,49.98 47.32,53.69 C46.69,54.18 46.62,55.09 47.11,55.65 C47.39,56 47.81,56.14 48.23,56.14 C48.51,56.14 48.86,56.07 49.14,55.86 C54.39,51.66 57.4,45.29 57.4,38.5 C57.4,26.18 47.32,16.1 35,16.1 Z M35,9.1 C18.76,9.1 5.6,22.26 5.6,38.5 C5.6,46.48 8.68,53.9 14.35,59.36 C14.91,59.92 15.82,59.92 16.31,59.36 C16.87,58.8 16.87,57.89 16.31,57.4 C11.2,52.43 8.4,45.71 8.4,38.5 C8.4,23.8 20.3,11.9 35,11.9 C49.7,11.9 61.6,23.8 61.6,38.5 C61.6,45.71 58.8,52.43 53.62,57.54 C53.06,58.1 53.06,58.94 53.62,59.5 C53.9,59.78 54.25,59.92 54.6,59.92 C54.95,59.92 55.3,59.78 55.58,59.5 C61.25,53.9 64.4,46.41 64.4,38.5 C64.4,22.26 51.24,9.1 35,9.1 Z M35,36.4 C33.81,36.4 32.9,37.31 32.9,38.5 C32.9,39.76 33.6,40.88 35,42 C36.4,40.88 37.1,39.76 37.1,38.5 C37.1,37.31 36.19,36.4 35,36.4 Z" id="Shape"></path>
                            </g>
                        </g>
                    </g>
                </g>
            </g>
        </g>
    </g>
</svg>