<?xml version="1.0" encoding="UTF-8"?>
<svg width="153px" height="153px" viewBox="0 0 153 153" version="1.1" xmlns="http://www.w3.org/2000/svg" xmlns:xlink="http://www.w3.org/1999/xlink">
    <!-- Generator: Sketch 63 (92445) - https://sketch.com -->
    <title>Group 4</title>
    <desc>Created with Sketch.</desc>
    <defs>
        <linearGradient x1="100%" y1="0%" x2="0%" y2="100%" id="linearGradient-1">
            <stop stop-color="#4CD964" offset="0%"></stop>
            <stop stop-color="#29BB9C" offset="100%"></stop>
        </linearGradient>
        <path d="M41.0221632,-1.65734449e-15 L69.9778368,1.65734449e-15 C84.2421366,-9.62964878e-16 89.4147164,1.48520978 94.6295313,4.27412326 C99.8443461,7.06303674 103.936963,11.1556539 106.725877,16.3704687 C109.51479,21.5852836 111,26.7578634 111,41.0221632 L111,69.9778368 C111,84.2421366 109.51479,89.4147164 106.725877,94.6295313 C103.936963,99.8443461 99.8443461,103.936963 94.6295313,106.725877 C89.4147164,109.51479 84.2421366,111 69.9778368,111 L41.0221632,111 C26.7578634,111 21.5852836,109.51479 16.3704687,106.725877 C11.1556539,103.936963 7.06303674,99.8443461 4.27412326,94.6295313 C1.48520978,89.4147164 6.41976585e-16,84.2421366 -1.10489633e-15,69.9778368 L1.10489633e-15,41.0221632 C-6.41976585e-16,26.7578634 1.48520978,21.5852836 4.27412326,16.3704687 C7.06303674,11.1556539 11.1556539,7.06303674 16.3704687,4.27412326 C21.5852836,1.48520978 26.7578634,9.62964878e-16 41.0221632,-1.65734449e-15 Z" id="path-2"></path>
        <filter x="-32.0%" y="-24.8%" width="164.0%" height="164.0%" filterUnits="objectBoundingBox" id="filter-3">
            <feMorphology radius="1.5" operator="dilate" in="SourceAlpha" result="shadowSpreadOuter1"></feMorphology>
            <feOffset dx="0" dy="8" in="shadowSpreadOuter1" result="shadowOffsetOuter1"></feOffset>
            <feGaussianBlur stdDeviation="10" in="shadowOffsetOuter1" result="shadowBlurOuter1"></feGaussianBlur>
            <feComposite in="shadowBlurOuter1" in2="SourceAlpha" operator="out" result="shadowBlurOuter1"></feComposite>
            <feColorMatrix values="0 0 0 0 0   0 0 0 0 0   0 0 0 0 0  0 0 0 0.18 0" type="matrix" in="shadowBlurOuter1"></feColorMatrix>
        </filter>
        <linearGradient x1="100%" y1="0.115225203%" x2="0%" y2="99.8847748%" id="linearGradient-4">
            <stop stop-color="#4CD964" offset="0%"></stop>
            <stop stop-color="#29BB9C" offset="100%"></stop>
        </linearGradient>
    </defs>
    <g id="Page-1" stroke="none" stroke-width="1" fill="none" fill-rule="evenodd">
        <g id="vinfast-klara-S" transform="translate(-682.000000, -3791.000000)">
            <g id="f4" transform="translate(0.000000, 3072.000000)">
                <g id="appFeature--right" transform="translate(467.000000, 732.000000)">
                    <g id="Group">
                        <g id="Group-4" transform="translate(236.000000, 0.000000)">
                            <g id="Rectangle">
                                <use fill="black" fill-opacity="1" filter="url(#filter-3)" xlink:href="#path-2"></use>
                                <use stroke="url(#linearGradient-1)" stroke-width="3" fill="#000000" fill-rule="evenodd" xlink:href="#path-2"></use>
                            </g>
                            <g id="icon/app-3" transform="translate(21.000000, 21.000000)" fill="url(#linearGradient-4)" fill-rule="nonzero">
                                <path d="M66.15,26.18 C65.45,23.66 63.84,21.56 61.6,20.23 C59.36,18.9 56.7,18.55 54.25,19.25 C51.1,13.02 45.92,8.47 39.55,6.3 C33.32,4.2 26.74,4.48 20.79,7 C19.04,4.9 16.31,3.5 13.3,3.5 C7.91,3.5 3.5,7.91 3.5,13.3 C3.5,16.17 4.76,18.76 6.79,20.58 C3.78,26.81 3.36,33.95 5.6,40.32 C7.91,46.83 12.67,52.15 18.97,55.16 L18.97,55.16 C18.27,60.06 21.28,64.82 26.11,66.08 C26.95,66.29 27.79,66.43 28.63,66.43 C30.31,66.43 31.99,66.01 33.53,65.1 C35.84,63.77 37.45,61.67 38.08,59.15 C38.29,58.38 38.36,57.68 38.43,56.91 C47.46,54.46 54.39,47.46 56.91,38.5 C57.68,38.5 58.45,38.36 59.22,38.15 C61.74,37.52 63.91,35.84 65.17,33.6 C66.5,31.36 66.85,28.7 66.15,26.18 Z M6.3,13.3 C6.3,9.45 9.45,6.3 13.3,6.3 C15.61,6.3 17.71,7.42 18.97,9.17 C18.97,9.24 19.04,9.31 19.04,9.45 C19.11,9.66 19.25,9.8 19.39,9.94 C19.95,10.92 20.3,12.11 20.3,13.37 C20.3,17.22 17.15,20.37 13.3,20.37 C9.45,20.37 6.3,17.15 6.3,13.3 Z M35.49,58.45 C35,60.27 33.88,61.74 32.2,62.72 C30.59,63.63 28.7,63.91 26.88,63.42 C23.1,62.44 20.93,58.66 21.91,54.81 L21.91,54.81 C22.4,52.99 23.52,51.52 25.2,50.54 C26.32,49.91 27.44,49.63 28.7,49.63 C29.33,49.63 29.89,49.7 30.52,49.84 C34.23,50.82 36.47,54.67 35.49,58.45 Z M38.15,54.11 C37.24,50.82 34.72,48.09 31.22,47.18 C28.7,46.55 26.04,46.9 23.8,48.16 C22.05,49.14 20.65,50.68 19.81,52.5 C14.35,49.7 10.29,45.08 8.26,39.34 C6.3,33.88 6.65,27.58 9.1,22.19 C10.36,22.82 11.76,23.1 13.3,23.1 C18.69,23.1 23.1,18.69 23.1,13.3 C23.1,11.97 22.82,10.64 22.33,9.45 C27.51,7.28 33.32,7.14 38.71,8.96 C44.24,10.85 48.86,14.84 51.66,20.3 C50.26,21.14 49.07,22.33 48.23,23.8 C46.97,25.97 46.55,28.7 47.25,31.22 C47.95,33.74 49.56,35.84 51.8,37.17 C52.5,37.59 53.27,37.94 54.11,38.15 C51.8,45.85 45.85,51.87 38.15,54.11 Z M62.79,32.2 C61.88,33.81 60.34,35 58.52,35.49 L58.52,35.49 C56.7,35.98 54.81,35.7 53.2,34.79 C51.59,33.88 50.4,32.34 49.91,30.52 C49.42,28.7 49.7,26.74 50.61,25.2 C51.52,23.59 53.06,22.4 54.88,21.91 C55.51,21.77 56.07,21.7 56.7,21.7 C57.89,21.7 59.15,22.05 60.2,22.68 C61.81,23.59 63,25.13 63.49,26.95 C63.91,28.7 63.7,30.59 62.79,32.2 Z" id="Shape"></path>
                            </g>
                        </g>
                    </g>
                </g>
            </g>
        </g>
    </g>
</svg>