<?xml version="1.0" encoding="UTF-8"?>
<svg width="153px" height="153px" viewBox="0 0 153 153" version="1.1" xmlns="http://www.w3.org/2000/svg" xmlns:xlink="http://www.w3.org/1999/xlink">
    <!-- Generator: Sketch 63 (92445) - https://sketch.com -->
    <title>Group 4</title>
    <desc>Created with Sketch.</desc>
    <defs>
        <linearGradient x1="100%" y1="0%" x2="0%" y2="100%" id="linearGradient-1">
            <stop stop-color="#4CD964" offset="0%"></stop>
            <stop stop-color="#29BB9C" offset="100%"></stop>
        </linearGradient>
        <path d="M41.0221632,-1.65734449e-15 L69.9778368,1.65734449e-15 C84.2421366,-9.62964878e-16 89.4147164,1.48520978 94.6295313,4.27412326 C99.8443461,7.06303674 103.936963,11.1556539 106.725877,16.3704687 C109.51479,21.5852836 111,26.7578634 111,41.0221632 L111,69.9778368 C111,84.2421366 109.51479,89.4147164 106.725877,94.6295313 C103.936963,99.8443461 99.8443461,103.936963 94.6295313,106.725877 C89.4147164,109.51479 84.2421366,111 69.9778368,111 L41.0221632,111 C26.7578634,111 21.5852836,109.51479 16.3704687,106.725877 C11.1556539,103.936963 7.06303674,99.8443461 4.27412326,94.6295313 C1.48520978,89.4147164 6.41976585e-16,84.2421366 -1.10489633e-15,69.9778368 L1.10489633e-15,41.0221632 C-6.41976585e-16,26.7578634 1.48520978,21.5852836 4.27412326,16.3704687 C7.06303674,11.1556539 11.1556539,7.06303674 16.3704687,4.27412326 C21.5852836,1.48520978 26.7578634,9.62964878e-16 41.0221632,-1.65734449e-15 Z" id="path-2"></path>
        <filter x="-32.0%" y="-24.8%" width="164.0%" height="164.0%" filterUnits="objectBoundingBox" id="filter-3">
            <feMorphology radius="1.5" operator="dilate" in="SourceAlpha" result="shadowSpreadOuter1"></feMorphology>
            <feOffset dx="0" dy="8" in="shadowSpreadOuter1" result="shadowOffsetOuter1"></feOffset>
            <feGaussianBlur stdDeviation="10" in="shadowOffsetOuter1" result="shadowBlurOuter1"></feGaussianBlur>
            <feComposite in="shadowBlurOuter1" in2="SourceAlpha" operator="out" result="shadowBlurOuter1"></feComposite>
            <feColorMatrix values="0 0 0 0 0   0 0 0 0 0   0 0 0 0 0  0 0 0 0.18 0" type="matrix" in="shadowBlurOuter1"></feColorMatrix>
        </filter>
        <linearGradient x1="100%" y1="9.5%" x2="0%" y2="90.5%" id="linearGradient-4">
            <stop stop-color="#4CD964" offset="0%"></stop>
            <stop stop-color="#29BB9C" offset="100%"></stop>
        </linearGradient>
    </defs>
    <g id="Page-1" stroke="none" stroke-width="1" fill="none" fill-rule="evenodd">
        <g id="vinfast-klara-S" transform="translate(-682.000000, -3791.000000)">
            <g id="f4" transform="translate(0.000000, 3072.000000)">
                <g id="appFeature--right" transform="translate(467.000000, 732.000000)">
                    <g id="Group">
                        <g id="Group-4" transform="translate(236.000000, 0.000000)">
                            <g id="Rectangle">
                                <use fill="black" fill-opacity="1" filter="url(#filter-3)" xlink:href="#path-2"></use>
                                <use stroke="url(#linearGradient-1)" stroke-width="3" fill="#000000" fill-rule="evenodd" xlink:href="#path-2"></use>
                            </g>
                            <g id="icon/app-4" transform="translate(21.000000, 21.000000)" fill="url(#linearGradient-4)" fill-rule="nonzero">
                                <path d="M36.4,39.62 L36.4,33.6 C36.4,32.83 35.77,32.2 35,32.2 C34.23,32.2 33.6,32.83 33.6,33.6 L33.6,39.62 C31.22,40.25 29.4,42.42 29.4,45.01 C29.4,48.09 31.92,50.61 35,50.61 C38.08,50.61 40.6,48.09 40.6,45.01 C40.6,42.42 38.78,40.25 36.4,39.62 Z M35,47.81 C33.46,47.81 32.2,46.55 32.2,45.01 C32.2,43.47 33.46,42.21 35,42.21 C36.54,42.21 37.8,43.47 37.8,45.01 C37.8,46.55 36.54,47.81 35,47.81 Z M20.3,43.4 C20.3,44.17 19.67,44.8 18.9,44.8 L15.4,44.8 C14.63,44.8 14,44.17 14,43.4 C14,42.63 14.63,42 15.4,42 L18.9,42 C19.67,42 20.3,42.63 20.3,43.4 Z M33.6,21 L33.6,17.5 C33.6,16.73 34.23,16.1 35,16.1 C35.77,16.1 36.4,16.73 36.4,17.5 L36.4,21 C36.4,21.77 35.77,22.4 35,22.4 C34.23,22.4 33.6,21.77 33.6,21 Z M55.3,43.4 C55.3,44.17 54.67,44.8 53.9,44.8 L50.4,44.8 C49.63,44.8 49,44.17 49,43.4 C49,42.63 49.63,42 50.4,42 L53.9,42 C54.67,42 55.3,42.63 55.3,43.4 Z M49.28,30.38 C49,30.66 48.65,30.8 48.3,30.8 C47.95,30.8 47.6,30.66 47.32,30.38 C46.76,29.82 46.76,28.98 47.32,28.42 L49.77,25.97 C50.33,25.41 51.17,25.41 51.73,25.97 C52.29,26.53 52.29,27.37 51.73,27.93 L49.28,30.38 Z M35,7.21 C17.99,7.21 4.2,21 4.2,38.01 C4.2,44.94 6.51,51.66 10.78,57.05 C14.07,61.18 25.2,62.65 34.72,62.65 C34.86,62.65 35,62.65 35.21,62.65 C44.73,62.58 56.07,61.04 59.36,56.84 L59.36,56.84 C63.56,51.38 65.8,44.87 65.8,38.01 C65.8,21 52.01,7.21 35,7.21 Z M57.12,55.16 C55.02,57.89 45.99,59.78 35.21,59.85 C24.29,59.92 15.12,58.03 13.02,55.37 C9.1,50.47 7,44.31 7,38.01 C7,22.54 19.53,10.01 35,10.01 C50.47,10.01 63,22.54 63,38.01 C63,44.24 60.97,50.19 57.12,55.16 Z M22.61,28.42 C23.17,28.98 23.17,29.82 22.61,30.38 C22.33,30.66 21.98,30.8 21.63,30.8 C21.28,30.8 20.93,30.66 20.65,30.38 L18.2,27.93 C17.64,27.37 17.64,26.53 18.2,25.97 C18.76,25.41 19.6,25.41 20.16,25.97 L22.61,28.42 Z" id="Shape"></path>
                            </g>
                        </g>
                    </g>
                </g>
            </g>
        </g>
    </g>
</svg>