<svg width="14" height="19" viewBox="0 0 14 19" fill="none" xmlns="http://www.w3.org/2000/svg">
                            <path d="M7.00016 0.666931C9.7585 0.666931 12.0002 2.8836 12.0002 5.62526C12.0002 9.34193 7.00016 14.8336 7.00016 14.8336C7.00016 14.8336 2.00016 9.34193 2.00016 5.62526C2.00016 2.8836 4.24183 0.666931 7.00016 0.666931ZM7.00016 4.00026C6.55814 4.00026 6.13421 4.17586 5.82165 4.48842C5.50909 4.80098 5.3335 5.2249 5.3335 5.66693C5.3335 6.10896 5.50909 6.53288 5.82165 6.84544C6.13421 7.158 6.55814 7.3336 7.00016 7.3336C7.44219 7.3336 7.86611 7.158 8.17867 6.84544C8.49124 6.53288 8.66683 6.10896 8.66683 5.66693C8.66683 5.2249 8.49124 4.80098 8.17867 4.48842C7.86611 4.17586 7.44219 4.00026 7.00016 4.00026ZM13.6668 14.8336C13.6668 16.6753 10.6835 18.1669 7.00016 18.1669C3.31683 18.1669 0.333496 16.6753 0.333496 14.8336C0.333496 13.7586 1.35016 12.8003 2.92516 12.1919L3.4585 12.9503C2.5585 13.3253 2.00016 13.8419 2.00016 14.4169C2.00016 15.5669 4.24183 16.5003 7.00016 16.5003C9.7585 16.5003 12.0002 15.5669 12.0002 14.4169C12.0002 13.8419 11.4418 13.3253 10.5418 12.9503L11.0752 12.1919C12.6502 12.8003 13.6668 13.7586 13.6668 14.8336Z" fill="#1F2125"></path>
                        </svg>