<svg width="48" height="38" viewBox="0 0 48 38" fill="none" xmlns="http://www.w3.org/2000/svg">
                    <rect width="48" height="38" fill="#F8F9FA"></rect>
                    <path d="M24.3701 11.6875H13.6299C12.5589 11.6875 11.6875 12.5589 11.6875 13.6299V21.6279C11.6875 22.195 12.1488 22.6562 12.7158 22.6562H14.6582V25.2842C14.6582 25.8512 15.1195 26.3125 15.6865 26.3125H25.2842C25.8512 26.3125 26.3125 25.8512 26.3125 25.2842V13.6299C26.3125 12.5589 25.4411 11.6875 24.3701 11.6875ZM14.6582 21.7422H12.7158C12.6528 21.7422 12.6016 21.6909 12.6016 21.6279V13.6299C12.6016 13.0628 13.0628 12.6016 13.6299 12.6016C14.1969 12.6016 14.6582 13.0628 14.6582 13.6299V21.7422ZM20.8281 22.2485V22.4148C20.8281 22.6609 20.639 22.8727 20.3932 22.8843C20.1308 22.8966 19.9141 22.6875 19.9141 22.4277V22.2491C19.9141 22.1864 19.8729 22.1317 19.8132 22.1128C19.1749 21.91 18.6842 21.367 18.5684 20.675C18.5267 20.4261 18.6947 20.1905 18.9437 20.1488C19.1927 20.1071 19.4282 20.2752 19.4699 20.5241C19.5472 20.9859 19.9593 21.3151 20.4352 21.283C20.8848 21.2526 21.2497 20.8891 21.2826 20.4396C21.3218 19.9048 20.8978 19.457 20.3711 19.457C19.3631 19.457 18.543 18.6369 18.543 17.6289C18.543 16.8151 19.0774 16.1238 19.8138 15.8876C19.8733 15.8686 19.9141 15.814 19.9141 15.7515V15.5852C19.9141 15.3391 20.1032 15.1274 20.349 15.1158C20.6114 15.1034 20.8281 15.3125 20.8281 15.5723V15.7509C20.8281 15.8136 20.8693 15.8683 20.929 15.8872C21.5673 16.09 22.058 16.633 22.1738 17.325C22.2155 17.5739 22.0475 17.8095 21.7985 17.8512C21.5494 17.893 21.3139 17.7248 21.2723 17.4759C21.195 17.0141 20.7829 16.6849 20.307 16.717C19.8574 16.7474 19.4925 17.1109 19.4595 17.5604C19.4204 18.0952 19.8444 18.543 20.3711 18.543C21.3791 18.543 22.1992 19.3631 22.1992 20.3711C22.1992 21.1849 21.6647 21.8762 20.9284 22.1124C20.8689 22.1314 20.8281 22.186 20.8281 22.2485Z" fill="#1F2125"></path>
                </svg>