<svg width="48" height="38" viewBox="0 0 46 36" fill="none" xmlns="http://www.w3.org/2000/svg">
                    <path d="M0 0H48V38H3C1.34315 38 0 36.6569 0 35V0Z" fill="#F8F9FA"></path>
                    <path d="M14.965 18.0925C16.045 20.215 17.785 21.955 19.9075 23.035L21.5575 21.385C21.7675 21.175 22.06 21.115 22.3225 21.1975C23.1625 21.475 24.0625 21.625 25 21.625C25.1989 21.625 25.3897 21.704 25.5303 21.8447C25.671 21.9853 25.75 22.1761 25.75 22.375V25C25.75 25.1989 25.671 25.3897 25.5303 25.5303C25.3897 25.671 25.1989 25.75 25 25.75C21.6185 25.75 18.3755 24.4067 15.9844 22.0156C13.5933 19.6245 12.25 16.3815 12.25 13C12.25 12.8011 12.329 12.6103 12.4697 12.4697C12.6103 12.329 12.8011 12.25 13 12.25H15.625C15.8239 12.25 16.0147 12.329 16.1553 12.4697C16.296 12.6103 16.375 12.8011 16.375 13C16.375 13.9375 16.525 14.8375 16.8025 15.6775C16.885 15.94 16.825 16.2325 16.615 16.4425L14.965 18.0925Z" fill="#1F2125"></path>
                </svg>