<svg width="48" height="38" viewBox="0 0 48 38" fill="none" xmlns="http://www.w3.org/2000/svg">
                    <path d="M0 3C0 1.34315 1.34315 0 3 0H48V38H3C1.34315 38 0 36.6569 0 35V3Z" fill="#F8F9FA"></path>
                    <path d="M22.135 24.7L20.6275 22.09C21.3625 21.55 21.8725 20.71 21.9775 19.75H25C24.9381 20.7405 24.6471 21.7031 24.1499 22.5621C23.6528 23.4211 22.963 24.1529 22.135 24.7ZM19.75 15.2725V12.25C22.975 12.445 25.555 15.025 25.75 18.25H22.7275C22.6437 17.4891 22.3031 16.7795 21.7618 16.2382C21.2205 15.6969 20.5109 15.3563 19.75 15.2725ZM15.25 19.375C15.25 19.855 15.3475 20.3125 15.535 20.725L12.925 22.2325C12.4786 21.3463 12.2474 20.3673 12.25 19.375C12.25 15.9775 14.905 13.2025 18.25 13V16.0225C16.5625 16.21 15.25 17.635 15.25 19.375ZM18.625 25.75C16.3975 25.75 14.44 24.625 13.3 22.885L15.91 21.3775C16.2223 21.8042 16.631 22.1509 17.1028 22.3894C17.5747 22.628 18.0963 22.7515 18.625 22.75C19.105 22.75 19.5625 22.6525 19.975 22.465L21.4825 25.075C20.62 25.51 19.6525 25.75 18.625 25.75Z" fill="#1F2125"></path>
                </svg>