<svg width="48" height="38" viewBox="0 0 48 38" fill="none" xmlns="http://www.w3.org/2000/svg">
                    <rect width="48" height="38" fill="#F8F9FA"></rect>
                    <path fill-rule="evenodd" clip-rule="evenodd" d="M26.875 20.3728C26.875 19.8054 26.875 19.238 26.6769 18.6706C26.5778 18.1033 26.2807 17.6304 25.7854 17.2522C26.2807 16.9685 26.3797 16.3065 26.0825 15.9283C25.7854 15.4554 25.191 15.2663 24.6958 15.2663C24.5967 15.2663 24.4976 15.2663 24.3986 15.2663C24.2005 15.1717 24.1014 14.9826 24.0024 14.888C23.6061 14.4152 23.2099 13.8478 22.6156 13.5641C22.2193 13.375 21.7241 13.375 21.3278 13.375C19.842 13.375 18.4552 13.375 16.9693 13.375C16.375 13.375 15.6816 13.375 15.1863 13.6587C14.691 13.9424 14.2948 14.5098 13.9976 14.888C13.8986 15.0772 13.7995 15.1717 13.7005 15.1717C13.6014 15.2663 13.4033 15.2663 13.3042 15.2663C12.7099 15.2663 12.2146 15.55 11.9175 15.9283C11.6203 16.3065 11.7193 17.063 12.2146 17.3467C11.7193 17.725 11.4222 18.1978 11.3231 18.7652C11.2241 19.3326 11.2241 19.9 11.125 20.4674C11.125 21.3185 11.125 22.1695 11.2241 23.0206C11.3231 23.6826 11.5212 24.3445 12.3137 24.5337C13.0071 24.7228 13.7995 24.6282 14.3939 24.1554C14.4929 24.0608 14.4929 24.0608 14.592 23.9663C14.691 23.9663 14.7901 23.9663 14.8892 23.9663C17.6627 23.9663 20.4363 23.9663 23.2099 23.9663C23.309 23.9663 23.309 23.9663 23.408 23.9663C23.5071 23.9663 23.5071 24.0608 23.6061 24.1554C23.8042 24.4391 24.2005 24.4391 24.5967 24.5337C25.092 24.6282 25.5873 24.6282 26.0825 24.3445C26.5778 24.0609 26.6769 23.4935 26.7759 22.9261C26.875 22.2641 26.875 21.6022 26.875 20.9402C26.875 20.7511 26.875 20.5619 26.875 20.3728ZM17.5637 21.3185C17.5637 21.5076 17.4646 21.6022 17.2665 21.413C17.1675 21.3185 17.1675 21.2239 17.0684 21.1293C16.9693 20.8456 16.8703 20.5619 16.5731 20.3728C16.2759 20.0891 15.7807 20.0891 15.3844 19.9946C15.0873 19.9 14.7901 19.8054 14.4929 19.7109C14.3939 19.6163 14.1958 19.6163 14.0967 19.6163C13.9976 19.6163 13.8986 19.7109 13.7995 19.7109C13.6014 19.8054 13.3042 19.7109 13.1061 19.6163C12.809 19.5217 12.6108 19.3326 12.4127 19.0489C12.3137 18.9543 12.2146 18.7652 12.1156 18.5761C12.1156 18.3869 12.2146 18.1978 12.3137 18.1033C12.5118 18.0087 12.809 18.1033 13.0071 18.2924C13.9976 18.8598 15.0873 18.9543 16.1769 19.238C16.4741 19.3326 16.7712 19.4272 16.9693 19.6163C17.1675 19.8054 17.2665 19.9946 17.2665 20.1837C17.3656 20.4674 17.4646 20.7511 17.4646 21.1293C17.6627 21.1293 17.6627 21.2239 17.5637 21.3185ZM20.1392 19.4272C19.941 19.9 19.6439 20.3728 19.3467 20.7511C19.2476 20.8456 19.2476 20.9402 19.1486 20.9402C19.0495 20.9402 18.9505 20.8456 18.8514 20.7511C18.6533 20.4674 18.4552 20.1837 18.2571 19.9C18.158 19.7109 18.059 19.6163 18.059 19.4272C17.9599 19.3326 17.9599 19.1435 18.059 18.9543C17.9599 18.9543 18.059 18.9543 18.158 18.9543C18.2571 18.9543 18.3561 19.0489 18.4552 19.0489C18.7524 19.238 18.9505 19.4272 19.0495 19.7109C19.2476 19.4272 19.4458 19.1435 19.7429 19.0489C19.7429 19.0489 19.842 18.9543 19.941 18.9543C20.0401 18.9543 20.0401 18.9543 20.1392 18.9543C20.2382 18.9543 20.2382 19.0489 20.2382 19.1435C20.2382 19.3326 20.1392 19.3326 20.1392 19.4272ZM25.5873 19.0489C25.3892 19.238 25.191 19.4272 24.8939 19.6163C24.6958 19.7109 24.3986 19.8054 24.2005 19.7109C24.1014 19.7109 24.0024 19.6163 23.9033 19.6163C23.8042 19.6163 23.6061 19.7109 23.5071 19.7109C23.2099 19.8054 22.9127 19.9 22.6156 19.9946C22.2193 20.0891 21.7241 20.0891 21.4269 20.3728C21.2288 20.5619 21.0307 20.8456 20.9316 21.1293C20.9316 21.2239 20.8325 21.3185 20.7335 21.413C20.5354 21.6022 20.4363 21.5076 20.4363 21.3185C20.4363 21.2239 20.4363 21.1293 20.4363 21.1293C20.4363 20.8456 20.5354 20.4674 20.6344 20.1837C20.7335 19.9946 20.8325 19.7109 20.9316 19.6163C21.1297 19.4272 21.4269 19.3326 21.7241 19.238C22.8137 18.9543 23.9033 18.7652 24.8939 18.2924C25.092 18.1978 25.3892 18.0087 25.5873 18.1033C25.7854 18.1978 25.8844 18.3869 25.7854 18.5761C25.8844 18.7652 25.7854 18.8598 25.5873 19.0489Z" fill="#1F2125"></path>
                </svg>