<svg width="48" height="38" viewBox="0 0 46 36" fill="none" xmlns="http://www.w3.org/2000/svg">
                    <path d="M0 0H48V38H3C1.34315 38 0 36.6569 0 35V0Z" fill="#F8F9FA"></path>
                    <path d="M25 11.5H13C12.175 11.5 11.5 12.175 11.5 13V26.5L14.5 23.5H25C25.825 23.5 26.5 22.825 26.5 22V13C26.5 12.175 25.825 11.5 25 11.5ZM19.75 20.5H18.25V19H19.75V20.5ZM21.1 16.75C20.875 17.05 20.575 17.2 20.275 17.35C20.05 17.5 19.975 17.575 19.9 17.725C19.75 17.875 19.75 18.025 19.75 18.25H18.25C18.25 17.875 18.325 17.65 18.475 17.425C18.625 17.275 18.925 17.05 19.3 16.825C19.525 16.75 19.675 16.6 19.75 16.45C19.825 16.3 19.9 16.075 19.9 15.925C19.9 15.7 19.825 15.55 19.675 15.4C19.525 15.25 19.3 15.175 19.075 15.175C18.85 15.175 18.7 15.25 18.55 15.325C18.4 15.4 18.325 15.55 18.325 15.775H16.825C16.9 15.25 17.125 14.8 17.5 14.5C17.875 14.2 18.4 14.125 19.075 14.125C19.75 14.125 20.35 14.275 20.725 14.575C21.1 14.875 21.325 15.325 21.325 15.85C21.4 16.15 21.325 16.45 21.1 16.75Z" fill="#1F2125"></path>
                </svg>