<svg width="18" height="16" viewBox="0 0 18 16" fill="none" xmlns="http://www.w3.org/2000/svg">
                            <path d="M4 5.81274C4 5.5641 4.09877 5.32565 4.27459 5.14983C4.4504 4.97402 4.68886 4.87524 4.9375 4.87524H13.0625C13.3111 4.87524 13.5496 4.97402 13.7254 5.14983C13.9012 5.32565 14 5.5641 14 5.81274C14 6.06139 13.9012 6.29984 13.7254 6.47566C13.5496 6.65147 13.3111 6.75024 13.0625 6.75024H4.9375C4.68886 6.75024 4.4504 6.65147 4.27459 6.47566C4.09877 6.29984 4 6.06139 4 5.81274ZM4.9375 9.87525H13.0625C13.3111 9.87525 13.5496 9.77647 13.7254 9.60066C13.9012 9.42484 14 9.18639 14 8.93775C14 8.6891 13.9012 8.45065 13.7254 8.27483C13.5496 8.09902 13.3111 8.00024 13.0625 8.00024H4.9375C4.68886 8.00024 4.4504 8.09902 4.27459 8.27483C4.09877 8.45065 4 8.6891 4 8.93775C4 9.18639 4.09877 9.42484 4.27459 9.60066C4.4504 9.77647 4.68886 9.87525 4.9375 9.87525ZM17.4375 2.37524V14.2502C17.4375 14.41 17.3966 14.5672 17.3188 14.7068C17.241 14.8463 17.1288 14.9637 16.9929 15.0477C16.857 15.1317 16.7018 15.1796 16.5422 15.1868C16.3825 15.194 16.2237 15.1602 16.0808 15.0888L14 14.0484L11.9192 15.0888C11.7891 15.1539 11.6455 15.1877 11.5 15.1877C11.3545 15.1877 11.2109 15.1539 11.0808 15.0888L9 14.0484L6.91922 15.0888C6.78906 15.1539 6.64553 15.1877 6.5 15.1877C6.35447 15.1877 6.21094 15.1539 6.08078 15.0888L4 14.0484L1.91922 15.0888C1.77629 15.1602 1.61747 15.194 1.45783 15.1868C1.2982 15.1796 1.14305 15.1317 1.00712 15.0477C0.87119 14.9637 0.75899 14.8463 0.681173 14.7068C0.603356 14.5672 0.562505 14.41 0.5625 14.2502V2.37524C0.562976 1.96099 0.727748 1.56384 1.02067 1.27091C1.31359 0.977992 1.71075 0.81322 2.125 0.812744H15.875C16.2893 0.81322 16.6864 0.977992 16.9793 1.27091C17.2723 1.56384 17.437 1.96099 17.4375 2.37524ZM15.5625 2.68774H2.4375V12.7333L3.58078 12.1617C3.71094 12.0966 3.85447 12.0627 4 12.0627C4.14553 12.0627 4.28906 12.0966 4.41922 12.1617L6.5 13.202L8.58078 12.1617C8.71094 12.0966 8.85447 12.0627 9 12.0627C9.14553 12.0627 9.28906 12.0966 9.41922 12.1617L11.5 13.202L13.5808 12.1617C13.7109 12.0966 13.8545 12.0627 14 12.0627C14.1455 12.0627 14.2891 12.0966 14.4192 12.1617L15.5625 12.7333V2.68774Z" fill="#1F2125"></path>
                        </svg>