<svg width="48" height="38" viewBox="0 0 48 38" fill="none" xmlns="http://www.w3.org/2000/svg">
                    <path d="M0 0H48V38H3C1.34315 38 0 36.6569 0 35V0Z" fill="#F8F9FA"></path>
                    <path d="M19.75 24.94C21.1 24.775 22.2625 24.2125 23.2375 23.2375C24.2125 22.2625 24.775 21.1 24.94 19.75H22.69C22.525 20.5 22.18 21.13 21.655 21.655C21.13 22.18 20.5 22.525 19.75 22.69V24.94ZM17.5 16H20.5L22.75 18.25H24.94C24.7525 16.7875 24.0925 15.535 22.9525 14.5C21.82 13.495 20.5 13 19 13C17.5 13 16.18 13.495 15.0475 14.5C13.9075 15.535 13.2475 16.7875 13.06 18.25H15.25L17.5 16ZM18.25 24.94V22.69C17.5 22.525 16.87 22.18 16.345 21.655C15.82 21.13 15.475 20.5 15.31 19.75H13.06C13.225 21.0775 13.7875 22.225 14.7625 23.2C15.7375 24.175 16.9 24.7525 18.25 24.94ZM19 11.5C21.0625 11.5 22.825 12.25 24.2875 13.7125C25.75 15.175 26.5 16.9375 26.5 19C26.5 21.0625 25.75 22.825 24.2875 24.2875C22.825 25.75 21.0625 26.5 19 26.5C16.9375 26.5 15.175 25.75 13.7125 24.2875C12.25 22.825 11.5 21.0625 11.5 19C11.5 16.9375 12.25 15.175 13.7125 13.7125C15.175 12.25 16.9375 11.5 19 11.5Z" fill="#1F2125"></path>
                </svg>