<svg width="48" height="38" viewBox="0 0 48 38" fill="none" xmlns="http://www.w3.org/2000/svg">
                    <path d="M0 3C0 1.34315 1.34315 0 3 0H48V38H0V3Z" fill="#F8F9FA"></path>
                    <path d="M19 13.75C16.1052 13.75 13.75 16.1052 13.75 19C13.75 21.8948 16.1052 24.25 19 24.25C21.8948 24.25 24.25 21.8948 24.25 19C24.25 16.1052 21.8948 13.75 19 13.75ZM21.6859 15.7111C21.7449 15.6454 21.8282 15.6066 21.9166 15.6031C21.9929 15.5944 22.0909 15.6316 22.155 15.6925C22.8356 16.3369 23.2983 17.1572 23.4919 18.0647C23.5226 18.2095 23.4528 18.3569 23.3214 18.4248C23.0003 18.5908 22.619 18.6712 22.2537 18.6712C21.7775 18.6712 21.3264 18.5347 21.0649 18.2732C20.5086 17.7173 20.7406 16.7595 21.6859 15.7111ZM16.3141 22.3402C16.2552 22.4059 16.1719 22.445 16.0834 22.4485C16.0796 22.4488 16.0751 22.4488 16.0706 22.4488C15.9867 22.4488 15.9059 22.4168 15.845 22.3591C15.1644 21.7147 14.7017 20.8944 14.5082 19.9866C14.4774 19.8418 14.5473 19.6944 14.6787 19.6264C15.4182 19.2448 16.4731 19.3159 16.9352 19.778C17.4908 20.334 17.2588 21.2918 16.3141 22.3402ZM16.9351 18.2733C16.6737 18.5347 16.2225 18.6713 15.7463 18.6713C15.381 18.6713 15.0003 18.5908 14.6786 18.4249C14.5473 18.3569 14.4774 18.2095 14.5082 18.0647C14.7017 17.1572 15.1644 16.3369 15.845 15.6925C15.9091 15.6316 16.0033 15.5938 16.0834 15.6031C16.1718 15.6067 16.2551 15.6454 16.3141 15.7111C17.2594 16.7595 17.4914 17.7173 16.9351 18.2733ZM20.3984 23.3756C19.944 23.5204 19.4736 23.5938 19 23.5938C18.5264 23.5938 18.056 23.5204 17.6016 23.3756C17.4574 23.3294 17.3632 23.191 17.3735 23.0401C17.4555 21.8593 18.1547 20.9688 19 20.9688C19.8453 20.9688 20.5445 21.8593 20.6265 23.04C20.6368 23.191 20.5426 23.3294 20.3984 23.3756ZM17.6875 19C17.6875 18.2762 18.2765 17.6875 19 17.6875C19.7236 17.6875 20.3125 18.2761 20.3125 19C20.3125 19.7239 19.7236 20.3125 19 20.3125C18.2765 20.3125 17.6875 19.7239 17.6875 19ZM20.6265 14.9859C20.5445 16.1664 19.8453 17.0569 19 17.0569C18.1547 17.0569 17.4555 16.1664 17.3735 14.9859C17.3632 14.835 17.4568 14.6966 17.601 14.6507C18.5098 14.3604 19.4903 14.3604 20.399 14.6507C20.5432 14.6966 20.6368 14.835 20.6265 14.9859ZM23.4919 19.9344C23.2983 20.8422 22.8356 21.6625 22.155 22.3069C22.0941 22.3646 22.0134 22.3966 21.9294 22.3966C21.925 22.3966 21.9205 22.3966 21.9166 22.3963C21.8282 22.3928 21.7449 22.354 21.6859 22.2883C20.7406 21.2399 20.5086 20.2818 21.0649 19.7258C21.527 19.2635 22.5812 19.1933 23.3214 19.5743C23.4528 19.6422 23.5226 19.7896 23.4919 19.9344Z" fill="#1F2125"></path>
                    <path d="M19 11.125C14.6575 11.125 11.125 14.6578 11.125 19C11.125 23.3422 14.6575 26.875 19 26.875C23.3425 26.875 26.875 23.3422 26.875 19C26.875 14.6578 23.3425 11.125 19 11.125ZM19 24.9062C15.7431 24.9062 13.0938 22.2566 13.0938 19C13.0938 15.7434 15.7431 13.0938 19 13.0938C22.2569 13.0938 24.9062 15.7434 24.9062 19C24.9062 22.2566 22.2569 24.9062 19 24.9062Z" fill="#1F2125"></path>
                </svg>